<svg width="180" height="50" xmlns="http://www.w3.org/2000/svg">
  <defs>
    <filter id="neon-li">
      <feGaussianBlur stdDeviation="2.5" result="coloredBlur"/>
      <feMerge>
        <feMergeNode in="coloredBlur"/>
        <feMergeNode in="SourceGraphic"/>
      </feMerge>
    </filter>
  </defs>
  
  <rect x="5" y="5" width="170" height="40" rx="10" fill="#0d1117" stroke="#0077b5" stroke-width="2" filter="url(#neon-li)">
    <animate attributeName="stroke-opacity" values="0.5;1;0.5" dur="3s" repeatCount="indefinite"/>
  </rect>
  
  <path transform="translate(45, 13) scale(1.2)" fill="#0077b5" d="M19 0h-14c-2.761 0-5 2.239-5 5v14c0 2.761 2.239 5 5 5h14c2.762 0 5-2.239 5-5v-14c0-2.761-2.238-5-5-5zm-11 19h-3v-11h3v11zm-1.5-12.268c-.966 0-1.75-.79-1.75-1.764s.784-1.764 1.75-1.764 1.75.79 1.75 1.764-.783 1.764-1.75 1.764zm13.5 12.268h-3v-5.604c0-3.368-4-3.113-4 0v5.604h-3v-11h3v1.765c1.396-2.586 7-2.777 7 2.476v6.759z"/>
  
  <text x="85" y="30" font-family="monospace" font-size="16" font-weight="bold" fill="#0077b5" filter="url(#neon-li)">LINKEDIN</text>
  
  <rect x="5" y="5" width="170" height="40" rx="10" fill="none" stroke="#0077b5" stroke-width="2" stroke-dasharray="20 400" stroke-dashoffset="420">
      <animate attributeName="stroke-dashoffset" from="420" to="0" dur="2.5s" repeatCount="indefinite" />
  </rect>
</svg>
