<svg width="180" height="50" xmlns="http://www.w3.org/2000/svg">
  <defs>
    <filter id="neon-x">
      <feGaussianBlur stdDeviation="2.5" result="coloredBlur"/>
      <feMerge>
        <feMergeNode in="coloredBlur"/>
        <feMergeNode in="SourceGraphic"/>
      </feMerge>
    </filter>
  </defs>
  
  <rect x="5" y="5" width="170" height="40" rx="10" fill="#0d1117" stroke="#1da1f2" stroke-width="2" filter="url(#neon-x)">
     <animate attributeName="stroke-opacity" values="0.5;1;0.5" dur="3s" repeatCount="indefinite"/>
  </rect>
  
  <!-- Twitter/X logo -->
  <path transform="translate(45, 13) scale(1.2)" fill="#1da1f2" d="M23.953 4.57a10 10 0 01-2.825.775 4.958 4.958 0 002.163-2.723c-.951.555-2.005.959-3.127 1.184a4.92 4.92 0 00-8.384 4.482C7.69 8.095 4.067 6.13 1.64 3.162a4.822 4.822 0 00-.666 2.475c0 1.71.87 3.213 2.188 4.096a4.904 4.904 0 01-2.228-.616v.06a4.923 4.923 0 003.946 4.827 4.996 4.996 0 01-2.212.085 4.936 4.936 0 004.604 3.417 9.867 9.867 0 01-6.102 2.105c-.39 0-.779-.023-1.17-.067a13.995 13.995 0 007.557 2.209c9.053 0 13.998-7.496 13.998-13.985 0-.21 0-.42-.015-.63A9.935 9.935 0 0024 4.59z"/>
  
  <text x="85" y="30" font-family="monospace" font-size="16" font-weight="bold" fill="#1da1f2" filter="url(#neon-x)">TWITTER</text>
  
  <rect x="5" y="5" width="170" height="40" rx="10" fill="none" stroke="#1da1f2" stroke-width="2" stroke-dasharray="15 400" stroke-dashoffset="415">
      <animate attributeName="stroke-dashoffset" from="415" to="0" dur="2s" repeatCount="indefinite" />
  </rect>
</svg>
